<?xml version="1.0" encoding="iso-8859-1"?>
<!-- Uploaded to: SVG Repo, www.svgrepo.com, Generator: SVG Repo Mixer Tools -->
<svg fill="#000000" height="800px" width="800px" version="1.1" id="Layer_1" xmlns="http://www.w3.org/2000/svg" xmlns:xlink="http://www.w3.org/1999/xlink" 
	 viewBox="0 0 512 512" xml:space="preserve">
<g>
	<g>
		<path d="M509.821,103.818l-0.512-1.197c-5.863-13.707-21.785-20.09-35.493-14.224c-2.873,1.23-6.181,0.379-8.231-2.117
			c-13.255-16.137-35.931-21.667-55.145-13.447l-14.821,6.34h-0.001l-225.595,96.505l-43.794-29.482
			c-2.128-1.432-4.835-1.688-7.191-0.679l-32.606,13.948c-5.519,2.364-11.93-0.209-14.292-5.727
			c-5.018-11.731-14.893-20.599-27.094-24.331l-35.28-10.793c-2.813-0.862-5.867-0.011-7.832,2.177
			c-1.965,2.188-2.481,5.316-1.325,8.02l34.538,80.737l-11.869,5.078c-9.383,4.015-13.75,14.914-9.737,24.296
			c3.001,7.016,9.853,11.229,17.042,11.229c2.424,0,4.888-0.48,7.254-1.491l16.816-7.193c0.83,1.057,1.944,1.911,3.296,2.415
			l77.518,28.864c7.787,2.899,15.907,4.345,24.014,4.345c9.193,0,18.372-1.859,27.034-5.564l73.155-31.294
			c7.821,7.192,18.123,11.243,28.765,11.243c5.55,0,11.188-1.097,16.604-3.414l14.517-6.21l23.662-10.122
			c3.837-1.641,5.617-6.082,3.975-9.919l-6.878-16.077l155.279-66.425C509.303,133.447,515.684,117.525,509.821,103.818z
			 M416.383,86.726c13.076-5.594,28.506-1.834,37.525,9.146c0.215,0.262,0.447,0.503,0.672,0.753l-36.584,15.65l-9.487-22.179
			L416.383,86.726z M20.9,137.826l19.725,6.032c7.934,2.427,14.356,8.195,17.621,15.824c5.638,13.18,20.948,19.318,34.129,13.678
			l28.825-12.33l32.275,21.727l-17.514,7.493c-0.245-1.095-0.579-2.183-1.036-3.251c-4.013-9.383-14.914-13.752-24.296-9.737
			l-61.589,26.346L20.9,137.826z M31.894,234.767c-1.695,0.723-3.736-0.094-4.459-1.786c-0.724-1.693,0.095-3.735,1.786-4.459
			l18.815-8.049l68.535-29.317c0.42-0.179,0.861-0.264,1.299-0.264c1.326,0,2.615,0.778,3.16,2.051
			c0.724,1.693-0.095,3.735-1.787,4.459L93.4,208.458l-0.001,0.001L31.894,234.767z M180.572,257.633
			c-12.72,5.44-26.866,5.778-39.832,0.951L73.322,233.48l51.865-22.188c0.002-0.001,0.004-0.002,0.006-0.003l69.312-29.65
			c-3.314,5.021-4.135,11.557-1.597,17.49c3.001,7.016,9.853,11.229,17.042,11.229c2.424,0,4.888-0.48,7.254-1.491l31.071-13.292
			c-3.365,9.914-2.98,20.549,1.146,30.197c0.293,0.684,0.624,1.341,0.947,2.002L180.572,257.633z M211.263,194.974
			c-1.694,0.724-3.735-0.095-4.459-1.786c-0.724-1.693,0.095-3.735,1.787-4.459l122.177-52.264c0.463-0.198,0.907-0.269,1.302-0.269
			c0.549,0,1.005,0.136,1.293,0.251c0.492,0.197,1.388,0.694,1.864,1.804c0.724,1.693-0.094,3.735-1.786,4.459L211.263,194.974z
			 M299.097,234.169c-11.383,4.87-24.276,1.356-31.773-7.757c-0.031-0.037-0.06-0.078-0.093-0.115
			c-1.563-1.92-2.892-4.081-3.913-6.468c-2.848-6.658-2.92-14.06-0.202-20.843s7.882-12.087,14.54-14.935l7.57-3.238l21.439,50.117
			L299.097,234.169z M320.561,224.987l-21.439-50.117l9.768-4.179l21.439,50.117L320.561,224.987z M496.01,118.878
			c-1.191,2.971-3.449,5.292-6.358,6.537l-155.279,66.425l-11.967-27.974l16.977-7.263c9.383-4.014,13.751-14.913,9.737-24.296
			c-1.939-4.534-5.54-8.046-10.136-9.888c-1.179-0.472-2.387-0.816-3.607-1.04l59.237-25.341l12.459,29.127
			c0.788,1.843,2.276,3.296,4.136,4.042c0.903,0.362,1.857,0.542,2.811,0.542c1.011,0,2.023-0.203,2.972-0.609l62.767-26.85
			c6.047-2.587,13.069,0.227,15.655,6.272l0.512,1.197C497.171,112.669,497.201,115.907,496.01,118.878z"/>
	</g>
</g>
<g>
	<g>
		<path d="M502.822,395.765h-33.725v-77.482h15.563c3.898,0,7.157-2.965,7.523-6.847l4.226-44.811
			c0.001-0.006,0.001-0.011,0.002-0.017l0.005-0.053c0.008-0.089,0.006-0.176,0.011-0.264c0.009-0.148,0.022-0.295,0.022-0.445
			v-25.23c0-4.173-3.383-7.556-7.556-7.556h-32.737v-22.113c0-4.173-3.383-7.556-7.556-7.556s-7.556,3.383-7.556,7.556v22.113
			h-32.737c-4.173,0-7.556,3.383-7.556,7.556v25.23c0,0.15,0.014,0.297,0.022,0.445c0.005,0.089,0.003,0.176,0.011,0.264
			l0.005,0.053c0.001,0.006,0.001,0.011,0.002,0.017l4.226,44.811c0.366,3.882,3.625,6.847,7.523,6.847h15.562v77.482H7.556
			c-4.173,0-7.556,3.383-7.556,7.556v32.063c0,4.173,3.383,7.556,7.556,7.556h495.266c4.173,0,7.556-3.383,7.556-7.556v-32.063
			C510.378,399.148,506.995,395.765,502.822,395.765z M415.863,248.171h65.473v10.118h-65.473V248.171z M419.418,303.171
			l-2.808-29.77h63.98l-2.808,29.77h-16.241h-25.882H419.418z M453.984,318.283v77.482h-10.77v-77.482H453.984z M495.266,427.828
			H15.112v-16.951h420.546h25.882h33.726V427.828z"/>
	</g>
</g>
</svg>